<?xml version="1.0" ?><!-- Uploaded to: SVG Repo, www.svgrepo.com, Generator: SVG Repo Mixer Tools -->
<svg width="800px" height="800px" viewBox="0 0 128 128" data-name="Layer 2" id="Layer_2" xmlns="http://www.w3.org/2000/svg"><defs><style>.cls-1{fill:#616834;}.cls-2{fill:#eba6a1;}.cls-3{fill:#ea563a;}.cls-4{fill:#fd8d92;}.cls-5{fill:#f1e175;}.cls-6{fill:#ead453;}.cls-7{fill:#ffffff;}.cls-8{fill:#8d934e;}</style></defs><title/><path class="cls-1" d="M115,70.93v0a9.29,9.29,0,0,0,0-13.39v0h0a9.31,9.31,0,0,0-3.47-13h0a9.29,9.29,0,0,0-6.71-11.6h0a9.3,9.3,0,0,0-9.47-9.48h0a9.31,9.31,0,0,0-11.61-6.71h0a9.3,9.3,0,0,0-13-3.46h0v0a9.32,9.32,0,0,0-13.4,0l0,0h0a9.3,9.3,0,0,0-13,3.46h0a9.31,9.31,0,0,0-11.61,6.71h0a9.31,9.31,0,0,0-9.48,9.48h0A9.32,9.32,0,0,0,16.5,44.54,9.3,9.3,0,0,0,13,57.5h0a9.3,9.3,0,0,0,0,13.4v0h0a9.31,9.31,0,0,0,3.47,13h0a9.29,9.29,0,0,0,6.71,11.6h0v0A9.3,9.3,0,0,0,32.69,105h0a9.31,9.31,0,0,0,11.61,6.71h0a9.31,9.31,0,0,0,13,3.46h0l0,0a9.32,9.32,0,0,0,13.4,0v0h0a9.3,9.3,0,0,0,13-3.46h0A9.31,9.31,0,0,0,95.29,105h0a9.3,9.3,0,0,0,9.47-9.48h0a9.3,9.3,0,0,0,6.71-11.6h0a9.31,9.31,0,0,0,3.47-13ZM95.91,64.22A7.51,7.51,0,0,0,94,75.13h0a7.51,7.51,0,0,0-5.54,9.59h0A7.53,7.53,0,0,0,80,91.86h0a7.52,7.52,0,0,0-10.4,3.79h0a7.51,7.51,0,0,0-11.08,0h0a7.51,7.51,0,0,0-10.4-3.79h0a7.51,7.51,0,0,0-8.48-7.13h0A7.51,7.51,0,0,0,34,75.14h0a7.52,7.52,0,0,0-1.91-10.91h0A7.52,7.52,0,0,0,34,53.29h0a7.53,7.53,0,0,0,5.55-9.6h0A7.52,7.52,0,0,0,48,36.57h0a7.52,7.52,0,0,0,10.4-3.79v0a7.5,7.5,0,0,0,11.08,0h0v0A7.52,7.52,0,0,0,80,36.58h0a7.52,7.52,0,0,0,8.48,7.13h0A7.51,7.51,0,0,0,94,53.29h0a7.52,7.52,0,0,0,1.91,10.91h0Z"/><path class="cls-2" d="M72.73,92a7.46,7.46,0,0,0-3.18,3.61h0a7.51,7.51,0,0,0-11.08,0h0A7.51,7.51,0,0,0,55.27,92v24a8.79,8.79,0,0,0,2-.9h0l0,0a9.32,9.32,0,0,0,13.4,0v0h0a8.79,8.79,0,0,0,2,.9Z"/><path class="cls-2" d="M55.27,36.4a7.46,7.46,0,0,0,3.18-3.61v0a7.5,7.5,0,0,0,11.08,0h0v0a7.44,7.44,0,0,0,3.18,3.6v-24a9.28,9.28,0,0,0-2,.91h0v0a9.32,9.32,0,0,0-13.4,0l0,0h0a9.28,9.28,0,0,0-2-.91Z"/><path class="cls-3" d="M111.5,83.9h0a9.31,9.31,0,0,0,3-2.61L92.71,68.72A7.44,7.44,0,0,0,94,75.13h0a7.51,7.51,0,0,0-5.54,9.59h0a7.55,7.55,0,0,0-2.65.16l19,11c0-.1,0-.21,0-.32h0A9.3,9.3,0,0,0,111.5,83.9Z"/><path class="cls-3" d="M34,53.29h0a7.53,7.53,0,0,0,5.55-9.6h0a7.46,7.46,0,0,0,6.2-2.09L24,29a9.14,9.14,0,0,0-.77,3.87h0A9.32,9.32,0,0,0,16.5,44.54c-.1.05-.19.12-.28.17l19,11A7.7,7.7,0,0,0,34,53.29Z"/><path class="cls-4" d="M111.5,44.53a9.3,9.3,0,0,0-6.71-11.6h0A9.23,9.23,0,0,0,104,29L82.25,41.6a7.5,7.5,0,0,0,6.2,2.1h0A7.51,7.51,0,0,0,94,53.29h0a7.55,7.55,0,0,0-1.19,2.37l19-11a2.68,2.68,0,0,0-.28-.18Z"/><path class="cls-4" d="M39.55,84.73h0A7.51,7.51,0,0,0,34,75.14h0a7.44,7.44,0,0,0,1.29-6.41L13.53,81.28a9.17,9.17,0,0,0,3,2.61h0a9.29,9.29,0,0,0,6.71,11.6h0v0c0,.11,0,.22,0,.32l19-11A7.55,7.55,0,0,0,39.55,84.73Z"/><path class="cls-5" d="M59.35,28.59s-1.5,6-12.38,6.78a3,3,0,0,1-3-2l-1.91-5.59a16.62,16.62,0,0,1,.12-11.09L44,11.9A2.94,2.94,0,0,1,47,10a20.73,20.73,0,0,1,12.32,5.88Z"/><path class="cls-5" d="M69.78,28.59s1.51,6,12.38,6.78a3,3,0,0,0,3-2l1.91-5.59a16.56,16.56,0,0,0-.12-11.09L85.17,11.9A2.94,2.94,0,0,0,82.11,10a20.73,20.73,0,0,0-12.33,5.88Z"/><path class="cls-5" d="M59.35,28.59a6.07,6.07,0,0,0-4.79,4.93c-.69,4.23-1.07,12.66-8.37,14.41,0,0,4.4,2.51,7.42,1l.69,6.79s7.33-.32,7.77-8.43-.47-17.17,2.58-17.17C64.65,30.07,62.42,25.89,59.35,28.59Z"/><path class="cls-5" d="M70,28.59a6.09,6.09,0,0,1,4.8,4.93c.68,4.23,1.07,12.66,8.36,14.41,0,0-4.4,2.51-7.42,1L75,55.67s-7.33-.32-7.76-8.43.47-17.17-2.59-17.17C64.65,30.07,66.89,25.89,70,28.59Z"/><path class="cls-6" d="M69.78,28.59l-.52.28a9.73,9.73,0,0,1-9.39,0l-.52-.28h0a16.8,16.8,0,0,1,0-12.73h0a9.79,9.79,0,0,1,10-.24l.42.24h0a14.93,14.93,0,0,1,0,12.73Z"/><circle class="cls-7" cx="63.66" cy="105.04" r="2.63"/><circle class="cls-7" cx="27.86" cy="82.28" r="2.63"/><circle class="cls-7" cx="27.86" cy="41.48" r="2.63"/><circle class="cls-7" cx="102.93" cy="82.28" r="2.63"/><circle class="cls-7" cx="102.93" cy="41.48" r="2.63"/><path class="cls-8" d="M19.8,56.48a.8.8,0,0,0,.57-.23.82.82,0,0,0,0-1.15l-3.67-3.73a.82.82,0,1,0-1.16,1.15l3.66,3.72A.84.84,0,0,0,19.8,56.48Z"/><path class="cls-8" d="M26.65,58.86a.83.83,0,0,0-1.11.34l-2.07,3.88a.81.81,0,0,0,.34,1.1.75.75,0,0,0,.38.1.81.81,0,0,0,.72-.43L27,60A.8.8,0,0,0,26.65,58.86Z"/><path class="cls-8" d="M23.92,68.56l-4.79-.65a.8.8,0,0,0-.92.7.8.8,0,0,0,.7.91l4.79.65h.11a.81.81,0,0,0,.8-.71A.8.8,0,0,0,23.92,68.56Z"/><path class="cls-8" d="M33.9,97.52a.81.81,0,0,0-1.3,1l2.85,3.76a.81.81,0,0,0,.65.32.77.77,0,0,0,.49-.17.81.81,0,0,0,.16-1.14Z"/><path class="cls-8" d="M45.76,95.15l-3.49,2.17a.82.82,0,0,0,.43,1.51.75.75,0,0,0,.43-.13l3.49-2.16a.82.82,0,0,0,.27-1.13A.83.83,0,0,0,45.76,95.15Z"/><path class="cls-8" d="M47.73,104.24a.81.81,0,0,0-.66.94l.91,5.14a.81.81,0,0,0,.8.67h.14a.81.81,0,0,0,.66-1l-.9-5.13A.81.81,0,0,0,47.73,104.24Z"/><path class="cls-8" d="M82.79,92.48a.81.81,0,0,0-1.15.08l-4.23,4.92a.81.81,0,0,0,.08,1.15.86.86,0,0,0,.54.2.79.79,0,0,0,.61-.29l4.23-4.91A.81.81,0,0,0,82.79,92.48Z"/><path class="cls-8" d="M84.49,103.45,81,102.28a.82.82,0,0,0-.52,1.55L84,105a.75.75,0,0,0,.26,0,.82.82,0,0,0,.25-1.59Z"/><path class="cls-8" d="M92.89,95.07a.8.8,0,0,0-1,.53l-1.43,4.63a.82.82,0,0,0,.54,1,1,1,0,0,0,.24,0,.81.81,0,0,0,.78-.58l1.43-4.62A.81.81,0,0,0,92.89,95.07Z"/><path class="cls-8" d="M100.76,67.07a.82.82,0,1,0-1.24,1.06l2.79,3.24a.83.83,0,0,0,1.15.09.82.82,0,0,0,.09-1.15Z"/><path class="cls-8" d="M109.44,60.87a.81.81,0,0,0-1.14.16l-3.39,4.53a.81.81,0,0,0,1.3,1L109.6,62A.81.81,0,0,0,109.44,60.87Z"/><path class="cls-8" d="M103.17,54.75l5.17,2.46a.93.93,0,0,0,.35.08.81.81,0,0,0,.35-1.55l-5.17-2.46a.82.82,0,0,0-1.09.39A.81.81,0,0,0,103.17,54.75Z"/><path class="cls-8" d="M95.38,26.92a.8.8,0,0,0-1,.49l-1.56,4.33a.82.82,0,0,0,.5,1.05.84.84,0,0,0,.27,0,.8.8,0,0,0,.77-.54L95.87,28A.8.8,0,0,0,95.38,26.92Z"/><path class="cls-8" d="M90.69,25.94l2.07-.65a.82.82,0,0,0,.54-1,.83.83,0,0,0-1-.54l-2.07.65a.8.8,0,0,0-.53,1,.82.82,0,0,0,.78.58A1,1,0,0,0,90.69,25.94Z"/><path class="cls-8" d="M35.33,30.58a.82.82,0,0,0,.64.31.78.78,0,0,0,.5-.17.81.81,0,0,0,.14-1.15l-2.33-3a.81.81,0,1,0-1.28,1Z"/><path class="cls-8" d="M41.52,29.33a.82.82,0,0,0-1.08.41l-1.85,4.14A.81.81,0,0,0,39,35a.78.78,0,0,0,.33.07.83.83,0,0,0,.75-.48l1.85-4.14A.82.82,0,0,0,41.52,29.33Z"/></svg>